<svg xmlns="http://www.w3.org/2000/svg" xmlns:xlink="http://www.w3.org/1999/xlink" width="910" height="86.84"><rect width="1810" height="86.84" rx="0" ry="0" class="a"/><svg height="86.84" viewBox="0 0 181 8.684" width="1810" xmlns="http://www.w3.org/2000/svg" xmlns:xlink="http://www.w3.org/1999/xlink"><style>@keyframes k{0%{transform:translateX(0)}5.1%{transform:translateX(-181px)}5.2%{transform:translateX(-362px)}5.6%{transform:translateX(-543px)}6.1%{transform:translateX(-905px)}34.6%{transform:translateX(-1086px)}39.1%{transform:translateX(-1267px)}40.8%{transform:translateX(-1448px)}43.3%{transform:translateX(-1629px)}45%{transform:translateX(-1810px)}69.1%{transform:translateX(-2534px)}69.4%{transform:translateX(-3077px)}69.8%{transform:translateX(-3258px)}70.3%{transform:translateX(-3620px)}to{transform:translateX(-3801px)}}.a{fill:#282d35}.c,.d,.e,.f,.g{fill:#a8cc8c;font-weight:700}.d,.e,.f,.g{fill:#66c2cd}.e,.f,.g{fill:#71bef2}.f,.g{fill:#e88388}.g{fill:#dbab79}.h,.m{fill:#b9c0cb}.m{text-decoration:underline}</style><g font-size="1.67" font-family="Monaco,Consolas,Menlo,'Bitstream Vera Sans Mono','Powerline Symbols',monospace"><defs><symbol id="1"><text y="1.67" class="c">➜</text><text x="3.006" y="1.67" class="d">pulkitsharma07.github.io</text><text x="28.056" y="1.67" class="e">git:(</text><text x="33.066" y="1.67" class="f">development</text><text x="44.088" y="1.67" class="e">)</text><text x="46.092" y="1.67" class="g">✗</text></symbol><symbol id="2"><text y="1.67" class="c">➜</text><text x="3.006" y="1.67" class="d">pulkitsharma07.github.io</text><text x="28.056" y="1.67" class="e">git:(</text><text x="33.066" y="1.67" class="f">development</text><text x="44.088" y="1.67" class="e">)</text><text x="46.092" y="1.67" class="g">✗</text><text x="48.096" y="1.67" class="h">redis-cli</text><text x="58.116" y="1.67" class="h">-p</text><text x="61.122" y="1.67" class="h">6379</text><text x="66.132" y="1.67" class="h">info</text><text x="71.142" y="1.67" class="h">|</text><text x="73.146" y="1.67" class="h">grep</text><text x="78.156" y="1.67" class="h">role</text></symbol><symbol id="3"><text y="1.67" class="f">role</text><text x="4.008" y="1.67" class="h">:master</text></symbol><symbol id="a"><path fill="transparent" d="M0 0h181v5H0z"/></symbol><symbol id="b"><path fill="#6f7683" d="M0 0h1.102v2.171H0z"/></symbol></defs><path class="a" d="M0 0h181v8.684H0z"/><g style="animation-duration:5.906454s;animation-iteration-count:infinite;animation-name:k;animation-timing-function:steps(1,end)"><svg width="3982"><svg><use xlink:href="#a"/><use xlink:href="#b" x="-.004"/></svg><svg x="181"><use xlink:href="#a"/><use xlink:href="#b" x="-.004"/></svg><svg x="362"><use xlink:href="#a"/><use xlink:href="#b" x="-.004"/></svg><svg x="543"><use xlink:href="#a"/><use xlink:href="#b" x="-.004"/></svg><svg x="724"><use xlink:href="#a"/><use xlink:href="#b" x="47.996"/><use xlink:href="#1"/></svg><svg x="905"><use xlink:href="#a"/><use xlink:href="#b" x="47.996"/><use xlink:href="#1"/></svg><svg x="1086"><use xlink:href="#a"/><use xlink:href="#b" x="47.996"/><use xlink:href="#1"/><text y="3.841" class="h">bck-i-search:</text><text x="14.028" y="3.841" class="h">_</text></svg><svg x="1267"><use xlink:href="#a"/><use xlink:href="#b" x="72.996"/><text y="1.67" class="c">➜</text><text x="3.006" y="1.67" class="d">pulkitsharma07.github.io</text><text x="28.056" y="1.67" class="e">git:(</text><text x="33.066" y="1.67" class="f">development</text><text x="44.088" y="1.67" class="e">)</text><text x="46.092" y="1.67" class="g">✗</text><text x="48.096" y="1.67" class="h">asciinema</text><text x="58.116" y="1.67" class="h">rec</text><text x="62.124" y="1.67" class="h">reverse_sea</text><text x="73.146" y="1.67" class="m">r</text><text x="74.148" y="1.67" class="h">ch</text><text y="3.841" class="h">bck-i-search:</text><text x="14.028" y="3.841" class="h">r_</text></svg><svg x="1448"><use xlink:href="#a"/><use xlink:href="#b" x="77.996"/><text y="1.67" class="c">➜</text><text x="3.006" y="1.67" class="d">pulkitsharma07.github.io</text><text x="28.056" y="1.67" class="e">git:(</text><text x="33.066" y="1.67" class="f">development</text><text x="44.088" y="1.67" class="e">)</text><text x="46.092" y="1.67" class="g">✗</text><text x="48.096" y="1.67" class="h">redis-cli</text><text x="58.116" y="1.67" class="h">-p</text><text x="61.122" y="1.67" class="h">6379</text><text x="66.132" y="1.67" class="h">info</text><text x="71.142" y="1.67" class="h">|</text><text x="73.146" y="1.67" class="h">grep</text><text x="78.156" y="1.67" class="m">ro</text><text x="80.16" y="1.67" class="h">le</text><text y="3.841" class="h">bck-i-search:</text><text x="14.028" y="3.841" class="h">ro_</text></svg><svg x="1629"><use xlink:href="#a"/><use xlink:href="#b" x="77.996"/><text y="1.67" class="c">➜</text><text x="3.006" y="1.67" class="d">pulkitsharma07.github.io</text><text x="28.056" y="1.67" class="e">git:(</text><text x="33.066" y="1.67" class="f">development</text><text x="44.088" y="1.67" class="e">)</text><text x="46.092" y="1.67" class="g">✗</text><text x="48.096" y="1.67" class="h">redis-cli</text><text x="58.116" y="1.67" class="h">-p</text><text x="61.122" y="1.67" class="h">6379</text><text x="66.132" y="1.67" class="h">info</text><text x="71.142" y="1.67" class="h">|</text><text x="73.146" y="1.67" class="h">grep</text><text x="78.156" y="1.67" class="m">rol</text><text x="81.162" y="1.67" class="h">e</text><text y="3.841" class="h">bck-i-search:</text><text x="14.028" y="3.841" class="h">rol_</text></svg><svg x="1810"><use xlink:href="#a"/><use xlink:href="#b" x="77.996"/><text y="1.67" class="c">➜</text><text x="3.006" y="1.67" class="d">pulkitsharma07.github.io</text><text x="28.056" y="1.67" class="e">git:(</text><text x="33.066" y="1.67" class="f">development</text><text x="44.088" y="1.67" class="e">)</text><text x="46.092" y="1.67" class="g">✗</text><text x="48.096" y="1.67" class="h">redis-cli</text><text x="58.116" y="1.67" class="h">-p</text><text x="61.122" y="1.67" class="h">6379</text><text x="66.132" y="1.67" class="h">info</text><text x="71.142" y="1.67" class="h">|</text><text x="73.146" y="1.67" class="h">grep</text><text x="78.156" y="1.67" class="m">role</text><text y="3.841" class="h">bck-i-search:</text><text x="14.028" y="3.841" class="h">role_</text></svg><svg x="1991"><use xlink:href="#a"/><use xlink:href="#b" x="77.996"/><use xlink:href="#2"/></svg><svg x="2172"><use xlink:href="#a"/><use xlink:href="#b" x="-.004" y="2.146"/><use xlink:href="#2"/></svg><svg x="2353"><use xlink:href="#a"/><use xlink:href="#b" x="-.004" y="2.146"/><use xlink:href="#2"/></svg><svg x="2534"><use xlink:href="#a"/><use xlink:href="#b" x="-.004" y="2.146"/><use xlink:href="#2"/></svg><svg x="2715"><use xlink:href="#a"/><use xlink:href="#b" x="-.004" y="4.317"/><use xlink:href="#2"/><use xlink:href="#3" y="2.171"/></svg><svg x="2896"><use xlink:href="#a"/><use xlink:href="#b" x="-.004" y="4.317"/><use xlink:href="#2"/><use xlink:href="#3" y="2.171"/></svg><svg x="3077"><use xlink:href="#a"/><use xlink:href="#b" x="-.004" y="4.317"/><use xlink:href="#2"/><use xlink:href="#3" y="2.171"/></svg><svg x="3258"><use xlink:href="#a"/><use xlink:href="#b" x="-.004" y="4.317"/><use xlink:href="#2"/><use xlink:href="#3" y="2.171"/></svg><svg x="3439"><use xlink:href="#a"/><use xlink:href="#b" x="47.996" y="4.317"/><use xlink:href="#2"/><use xlink:href="#3" y="2.171"/><use xlink:href="#1" y="4.342"/></svg><svg x="3620"><use xlink:href="#a"/><use xlink:href="#b" x="47.996" y="4.317"/><use xlink:href="#2"/><use xlink:href="#3" y="2.171"/><use xlink:href="#1" y="4.342"/></svg><svg x="3801"><use xlink:href="#a"/><use xlink:href="#b" x="-.004" y="6.488"/><use xlink:href="#2"/><use xlink:href="#3" y="2.171"/><use xlink:href="#1" y="4.342"/></svg></svg></g></g></svg></svg>
